<svg id="fi_4402781" enable-background="new 0 0 512 512" height="512" viewBox="0 0 512 512" width="512" xmlns="http://www.w3.org/2000/svg"><g><g><path d="m210.101 359.331 45.899 77.372-45.899 67.797h-101.984c0-116.608 71.856-145.169 71.856-145.169z" fill="#4b5266"></path><path d="m403.883 504.5h-101.984l-45.899-67.797 45.899-77.372h30.127s71.857 28.561 71.857 145.169z" fill="#4b5266"></path><path d="m210.101 359.331h91.798v145.17h-91.798z" fill="#faf0ce"></path><path d="m210.101 449.331v55.169h41.452c-13.743-14.917-22.144-34.829-22.144-56.71z" fill="#fadfbc"></path><path d="m204.015 387.353s-57.683 33.126-16.909 69.867c38.81 38.81 68.894-20.516 68.894-20.516v-54.446z" fill="#e75b70"></path><path d="m307.985 387.353s57.683 33.126 16.909 69.867c-38.81 38.809-68.894-20.517-68.894-20.517v-54.446z" fill="#e75b70"></path><path d="m220.721 366.145v35.279c0 19.484 15.795 35.279 35.279 35.279 19.484 0 35.279-15.795 35.279-35.279v-35.279z" fill="#fd8b9b"></path><circle cx="412.612" cy="254.719" fill="#ffbd86" r="43.387"></circle><path d="m113.222 180.363c-8.887 19.656-13.834 41.475-13.834 64.449 0 86.494 70.118 156.612 156.612 156.612s156.612-70.118 156.612-156.612c0-22.974-4.947-44.793-13.834-64.449z" fill="#fed2a4"></path><path d="m398.147 160.575h-284.294l41.441-69.608 100.706-41.733 100.706 41.733z" fill="#fae09d"></path><path d="m197.863 390.27c-33.924-27.754-55.58-69.942-55.58-117.192 0-34.935 11.843-67.101 31.725-92.715h-60.785c-4.463 9.872-7.931 20.291-10.279 31.126-1.174-.095-2.357-.157-3.555-.157-23.962 0-43.387 19.425-43.387 43.388 0 23.962 19.425 43.387 43.387 43.387 3.077 0 6.077-.325 8.972-.934 15.048 42.425 47.864 76.44 89.502 93.097z" fill="#ffbd86"></path><path d="m163.02 150.814c0-24.728 9.112-50.166 23.988-72.99l-31.714 13.143-41.441 69.607h49.527c-.236-3.222-.36-6.476-.36-9.76z" fill="#fdcb71"></path><path d="m447.388 141.61h-382.776c-16.892 0-28.536 16.936-22.488 32.708l2.71 7.066c8.715 22.728 30.538 37.731 54.879 37.731h312.574c24.341 0 46.164-15.004 54.879-37.731l2.71-7.066c6.048-15.772-5.596-32.708-22.488-32.708z" fill="#4b5266"></path><path d="m356.706 90.967h-201.412l23.599-39.638c8.094-13.593 19.458-24.55 32.763-32.109 13.295-7.559 28.532-11.72 44.344-11.72 31.633 0 60.929 16.644 77.107 43.829z" fill="#4b5266"></path><g><g><g><ellipse cx="168.233" cy="286.336" fill="#fd8b9b" rx="32.384" ry="25.789"></ellipse></g><g><ellipse cx="343.767" cy="286.336" fill="#fd8b9b" rx="32.384" ry="25.789"></ellipse></g></g></g><path d="m329.779 314.351c-14.788-17.502-23.382-66.397-73.779-39.706-50.397-26.69-58.991 22.205-73.779 39.706-4.127 4.884-2.331 12.356 3.471 15.043 15.618 7.232 42.208 11.684 70.308-18.56 28.101 30.244 54.691 25.793 70.308 18.56 5.802-2.687 7.598-10.159 3.471-15.043z" fill="#d3918a"></path><g><path d="m150.054 196.705c0-19.86 4.823-38.591 13.356-55.094h-98.798c-16.892 0-28.536 16.936-22.488 32.708l2.71 7.066c8.715 22.728 30.538 37.731 54.879 37.731h52.437c-1.37-7.262-2.096-14.752-2.096-22.411z" fill="#353948"></path></g><path d="m269.177 8.482c-4.327-.641-8.728-.982-13.177-.982-15.812 0-31.049 4.161-44.344 11.72-13.305 7.559-24.669 18.516-32.763 32.109l-23.599 39.638h23.952c19.111-35.974 52.971-67.352 89.931-82.485z" fill="#353948"></path><path d="m213.399 320.046c0-22.134 12.858-41.262 31.509-50.333-40.689-14.295-49.057 28.505-62.687 44.637-4.127 4.884-2.331 12.356 3.471 15.043 7.607 3.523 17.821 6.373 29.541 4.889-1.193-4.546-1.834-9.315-1.834-14.236z" fill="#cb827c"></path></g><g><path d="m187.106 269.011c4.142 0 7.5-3.358 7.5-7.5v-13.239c0-4.142-3.358-7.5-7.5-7.5s-7.5 3.358-7.5 7.5v13.239c0 4.142 3.358 7.5 7.5 7.5z"></path><path d="m324.893 269.011c4.142 0 7.5-3.358 7.5-7.5v-13.239c0-4.142-3.358-7.5-7.5-7.5s-7.5 3.358-7.5 7.5v13.239c0 4.142 3.358 7.5 7.5 7.5z"></path><path d="m335.508 309.51c-2.766-3.274-5.558-8.346-8.514-13.717-6.003-10.908-12.808-23.271-24.208-30.546-12.944-8.26-28.277-7.944-46.786.992-18.508-8.936-33.842-9.252-46.786-.992-11.4 7.276-18.205 19.639-24.208 30.547-2.956 5.37-5.748 10.443-8.513 13.716-7.298 8.636-4.294 21.9 6.047 26.689 14.804 6.855 43.327 13.505 73.46-14.733 16.916 15.852 33.32 20.708 47.08 20.708 10.751 0 19.887-2.967 26.38-5.975 10.34-4.788 13.345-18.052 6.048-26.689zm-12.352 13.078c-26.581 12.31-48.203-2.374-61.662-16.859-2.963-3.189-8.021-3.194-10.989 0-13.458 14.485-35.08 29.169-61.662 16.859-1.324-.613-1.816-2.305-.893-3.396 3.729-4.414 6.871-10.122 10.197-16.165 11.556-20.997 21.537-39.129 54.343-21.754 2.196 1.163 4.824 1.163 7.021 0 32.805-17.375 42.786.758 54.343 21.754 3.326 6.043 6.468 11.751 10.197 16.165.919 1.087.436 2.78-.895 3.396z"></path><path d="m403.883 512c4.142 0 7.5-3.358 7.5-7.5 0-30.813-4.929-58.481-14.65-82.235-1.569-3.833-5.948-5.669-9.782-4.1-3.833 1.568-5.669 5.948-4.101 9.782 8.194 20.022 12.703 43.221 13.428 69.053h-30.811v-31.054c0-4.142-3.358-7.5-7.5-7.5s-7.5 3.358-7.5 7.5v31.054h-41.068v-20.919c7.825-2.543 14.78-7.57 20.66-13.42 10.318-9.344 17.686-21.068 16.853-35.076-.837-14.082-9.342-25.319-19.489-34.982 7.634-3.694 14.979-7.982 21.964-12.824 7.174 6.273 13.698 13.657 19.442 22.014 2.346 3.413 7.015 4.279 10.429 1.932 3.414-2.346 4.278-7.016 1.932-10.429-5.868-8.537-12.487-16.187-19.741-22.84 20.616-17.331 36.925-39.625 47.058-65.032 1.367.111 2.736.183 4.104.183 28.06 0 50.888-22.828 50.888-50.887 0-14.75-6.22-28.341-16.819-37.833 12.292-7.492 22.153-18.901 27.489-32.817l2.709-7.065c7.926-20.671-7.362-42.894-29.491-42.894h-56.267l-51.568-86.617c-17.434-29.296-49.449-47.494-83.552-47.494-15.587 0-31.134 3.811-44.958 11.021-3.673 1.916-5.097 6.446-3.182 10.118 1.916 3.673 6.447 5.097 10.118 3.182 11.692-6.098 24.84-9.321 38.022-9.321 28.842 0 55.918 15.39 70.663 40.166l16.849 28.301h-175.024l16.849-28.301c2.989-5.019 6.545-9.75 10.57-14.06 2.827-3.027 2.664-7.773-.363-10.6s-7.773-2.665-10.601.363c-4.754 5.092-8.958 10.685-12.494 16.623l-51.569 86.618h-56.268c-22.134 0-37.415 22.228-29.491 42.893l2.709 7.066c5.337 13.916 15.197 25.325 27.489 32.816-10.6 9.491-16.819 23.083-16.819 37.833 0 28.059 22.828 50.887 50.888 50.887 1.368 0 2.738-.072 4.104-.183 10.135 25.411 26.447 47.708 47.068 65.041-9.453 8.696-20.701 21.722-30.033 40.239-13.212 26.216-19.911 57.774-19.911 93.797 0 4.142 3.358 7.5 7.5 7.5h295.767zm-244.325-413.533h192.885l21.22 35.643h-235.326zm-61.188 192.125c-19.319-.541-34.87-16.425-34.87-35.873 0-12.787 6.625-24.341 17.476-30.808 3.843 1.135 8.098 1.96 11.954 2.358-1.722 15.214-1.304 30.92 1.305 46.223 1.063 6.244 2.62 12.88 4.135 18.1zm157.63 118.332c8.421 0 18.064-.719 27.276-2.26-2.456 12.893-13.839 22.54-27.276 22.54-13.271 0-24.792-9.496-27.276-22.54 8.469 1.416 18.031 2.26 27.276 2.26zm75.938 19.549c.46 7.75-3.6 15.546-12.065 23.175-.097.087-.191.177-.283.269-5.079 5.079-11.527 9.794-18.704 10.772-13.046 1.775-24.874-9.682-32.503-20.313 17.013-5.139 29.565-20.682 30.355-39.077 4.44-1.196 8.845-2.584 13.172-4.152 9.147 7.092 19.344 17.813 20.028 29.326zm-120.825 34.215c-7.168-.977-13.604-5.676-18.704-10.772-.092-.092-.186-.182-.283-.269-7.937-7.151-12.001-14.452-12.099-21.722-.163-11.985 10.555-23.439 20.062-30.778 4.327 1.567 8.732 2.956 13.172 4.151.784 18.248 13.429 34.06 30.317 39.064-7.657 10.636-19.412 22.104-32.465 20.326zm-48.507-82.914c6.987 4.843 14.334 9.132 21.971 12.829-11.412 10.308-20.538 24.277-19.466 39.628.752 10.766 6.398 20.981 16.831 30.429 5.784 5.756 12.775 10.858 20.66 13.42v20.92h-41.068v-31.054c0-4.142-3.358-7.5-7.5-7.5s-7.5 3.358-7.5 7.5v31.054h-30.8c1.001-32.712 9.142-84.407 46.872-117.226zm54.994 97.918c15.953-1.595 29.152-13.886 38.399-26.828 9.27 12.974 22.525 25.26 38.399 26.828v19.308h-76.798zm79.45-89.517c-26.889 7.683-55.484 7.605-82.097.001-54.073-15.504-95.662-60.842-105.727-116.978-.002-.013-.005-.027-.008-.04-2.517-14.058-3.091-29.16-1.225-44.542h296.013c1.81 14.924 1.384 29.969-1.225 44.542-.002.013-.005.027-.008.04-10.064 56.135-51.652 101.472-105.723 116.977zm133.974-164.263c10.85 6.466 17.476 18.021 17.476 30.808 0 19.448-15.551 35.332-34.87 35.873 1.484-5.112 3.054-11.745 4.136-18.1 2.609-15.305 3.035-30.902 1.305-46.223 3.807-.397 8.04-1.203 11.953-2.358zm-18.661-12.298c-.025 0-.051.001-.076.001h-312.574c-.028 0-.055-.001-.083-.002-20.781-.031-40.158-13.005-47.793-32.915l-2.709-7.066c-4.156-10.836 3.798-22.522 15.485-22.522h382.776c11.606 0 19.67 11.611 15.485 22.522l-2.709 7.066c-7.593 19.798-26.888 32.885-47.802 32.916z"></path></g></g></svg>